{"title":"Fate/Zero Season 1 &amp; 2","uid":9414059,"size":1286395711,"categoryP":"video","categoryS":"tv_shows","magnet":"?xt=urn:btih:003dfff8a898d0d6328a0ef85e0ed2c250f7bf01&amp;dn=Fate%2FZero+Season+1+%26amp%3B+2&amp;tr=udp%3A%2F%2Ftracker.openbittorrent.com%3A80&amp;tr=udp%3A%2F%2Fopen.demonii.com%3A1337&amp;tr=udp%3A%2F%2Ftracker.coppersurfer.tk%3A6969&amp;tr=udp%3A%2F%2Fexodus.desync.com%3A6969","seeders":6,"leechers":3,"uploader":"p7trick","files":-1,"time":1388390202,"description":"downloaded from justdubs\n\nFate/Zero Season 1 &amp; 2 ENGLISH DUBBED eps 1-25\n_________________________________________________________\n\nFormat                                   : MPEG-4\nFormat profile                           : Base Media\nCodec ID                                 : isom\nFile size                                : 45.1 MiB\nDuration                                 : 23mn 40s\nOverall bit rate mode                    : Variable\nOverall bit rate                         : 267 Kbps\nEncoded date                             : UTC 2013-06-27 07:36:21\nTagged date                              : UTC 2013-06-27 07:36:21\n\nVideo\nID                                       : 1\nFormat                                   : AVC\nFormat/Info                              : Advanced Video Codec\nFormat profile                           : &lt;a class=&quot;__cf_email__&quot; href=&quot;/cdn-cgi/l/email-protection&quot; data-cfemail=&quot;3971505e5179750a1709&quot;&gt;[email&amp;#160;protected]&lt;/a&gt;&lt;script cf-hash='f9e31' type=&quot;text/javascript&quot;&gt;\n/* &lt;![CDATA[ */!function(){try{var t=&quot;currentScript&quot;in document?document.currentScript:function(){for(var t=document.getElementsByTagName(&quot;script&quot;),e=t.length;e--;)if(t[e].getAttribute(&quot;cf-hash&quot;))return t[e]}();if(t&amp;&amp;t.previousSibling){var e,r,n,i,c=t.previousSibling,a=c.getAttribute(&quot;data-cfemail&quot;);if(a){for(e=&quot;&quot;,r=parseInt(a.substr(0,2),16),n=2;a.length-n;n+=2)i=parseInt(a.substr(n,2),16)^r,e+=String.fromCharCode(i);e=document.createTextNode(e),c.parentNode.replaceChild(e,c)}}}catch(u){}}();/* ]]&gt; */&lt;/script&gt;\nFormat settings, CABAC                   : Yes\nFormat settings, ReFrames                : 8 frames\nCodec ID                                 : avc1\nCodec ID/Info                            : Advanced Video Coding\nDuration                                 : 23mn 40s\nBit rate mode                            : Variable\nBit rate                                 : 199 Kbps\nMaximum bit rate                         : 2 921 Kbps\nWidth                                    : 704 pixels\nHeight                                   : 392 pixels\nDisplay aspect ratio                     : 16:9\nFrame rate mode                          : Constant\nFrame rate                               : 23.976 fps\nColor space                              : YUV\nChroma subsampling                       : 4:2:0\nBit depth                                : 8 bits\nScan type                                : Progressive\nBits/(Pixel*Frame)                       : 0.030\nStream size                              : 33.8 MiB (75%)\nWriting library                          : x264 core 119 r2106 07efeb4\n\nAudio\nID                                       : 2\nFormat                                   : AAC\nFormat/Info                              : Advanced Audio Codec\nFormat profile                           : HE-AAC / LC\nCodec ID                                 : 40\nDuration                                 : 23mn 40s\nBit rate mode                            : Variable\nBit rate                                 : 64.0 Kbps\nMaximum bit rate                         : 84.7 Kbps\nChannel(s)                               : 2 channels\nChannel positions                        : Front: L R\nSampling rate                            : 48.0 KHz / 24.0 KHz\nCompression mode                         : Lossy\nStream size                              : 10.8 MiB (24%)\n\n_________________________________________________________\n\nSummary:\nThe Holy Grail War is a death-match between 7 magi (Masters) and their summoned heroic spirits (Servants). In this battle royale, the prize is the legendary Holy Grail, said to be an omnipotent wish-granting device which will produce any sort of miracle in order to bend reality to accommodate the wishes it grants. The winning Master and Servant shall be granted one wish each, after which the Holy Grail will not be activated until the next War.\n\nAs the 4th Holy Grail War progresses, several camps raise the stakes, and the challenges only become bigger and more difficult. Each Master and Servant will be faced with the impact of their own shortcomings, and some of the competitors would do well in remembering that deceit and betrayal do not send prior warning...\n\n\nFor updates/requests:\nTwitter - @p7tricktorrent\nFacebook - /p7tricktorrent\nTPB - /user/p7trick/\nKAT - /user/iPirate7\n_________________________________________________________\n\nSEED!\n\nshare ratio:\n&quot;Scumbag = 0.1:1\nLeecher = 0.999:1\nMinimum = 1:1\nGood = 3:1\nGreat = 5:1\nAwesome = 10:1\n1337 = 100:1&quot;\t","torrent":{"xt":"urn:btih:003dfff8a898d0d6328a0ef85e0ed2c250f7bf01","amp;dn":"Fate%2FZero+Season+1+%26amp%3B+2","amp;tr":["udp%3A%2F%2Ftracker.openbittorrent.com%3A80","udp%3A%2F%2Fopen.demonii.com%3A1337","udp%3A%2F%2Ftracker.coppersurfer.tk%3A6969","udp%3A%2F%2Fexodus.desync.com%3A6969"],"infoHash":"003dfff8a898d0d6328a0ef85e0ed2c250f7bf01","infoHashBuffer":{"type":"Buffer","data":[0,61,255,248,168,152,208,214,50,138,14,248,94,14,210,194,80,247,191,1]},"announce":[],"urlList":[]}}